<?xml version="1.0" encoding="UTF-8" standalone="no"?>
<!-- Created with Inkscape (http://www.inkscape.org/) -->

<svg
   xmlns:dc="http://purl.org/dc/elements/1.1/"
   xmlns:cc="http://creativecommons.org/ns#"
   xmlns:rdf="http://www.w3.org/1999/02/22-rdf-syntax-ns#"
   xmlns:svg="http://www.w3.org/2000/svg"
   xmlns="http://www.w3.org/2000/svg"
   version="1.2"
   width="0.444444in"
   height="0.444444in"
   viewBox="0 0 32 32"
   id="svg2"
   xml:space="preserve"><desc
     id="desc3"><referenceFile
       id="referenceFile5">LM2575_icon.svg</referenceFile></desc><metadata
     id="metadata37"><rdf:RDF><cc:Work
         rdf:about=""><dc:format>image/svg+xml</dc:format><dc:type
           rdf:resource="http://purl.org/dc/dcmitype/StillImage" /><dc:title></dc:title></cc:Work></rdf:RDF></metadata><defs
     id="defs35" /><g
     id="icon"><path
       d="M 28.146,1.298 H 15.999 v 2.026 c 3.526,0 6.379,2.002 6.379,4.469 -0.002,2.465 -2.854,4.465 -6.379,4.465 v 6.551 H 28.146 V 1.298 z"
       id="path4"
       style="fill:#bfbcbc" /><path
       d="m 9.622,7.789 c 0,-2.469 2.854,-4.467 6.377,-4.467 V 1.296 H 3.851 V 18.801 H 15.999 V 12.252 C 12.476,12.254 9.622,10.256 9.622,7.789 z"
       id="path6"
       style="fill:#808080" /><rect
       width="2.431"
       height="24.938"
       x="6.6859999"
       y="38.583"
       id="rect4"
       style="fill:#8c8c8c" /><rect
       width="2.4300001"
       height="24.938"
       x="14.784"
       y="38.583"
       id="rect6"
       style="fill:#8c8c8c" /><rect
       width="2.4300001"
       height="24.938"
       x="22.882999"
       y="38.583"
       id="rect8"
       style="fill:#8c8c8c" /><polygon
       points="1.016,15.364 3.851,15.364 3.851,1.298 1.016,4.559 "
       id="polygon10"
       style="fill:#cccccc" /><polygon
       points="28.146,1.298 28.146,15.364 30.982,15.364 30.982,4.559 "
       id="polygon12"
       style="fill:#999999" /><polygon
       points="8.922,47.607 6.88,47.607 5.064,46.8 5.064,36.934 10.735,36.934 10.735,46.8 "
       id="polygon21"
       style="fill:#8c8c8c" /><polygon
       points="17.02,47.607 14.979,47.607 13.164,46.8 13.164,36.934 18.835,36.934 18.835,46.8 "
       id="polygon23"
       style="fill:#8c8c8c" /><polygon
       points="25.118,47.607 23.079,47.607 21.264,46.8 21.264,36.934 26.934,36.934 26.934,46.8 "
       id="polygon25"
       style="fill:#8c8c8c" /><rect
       width="9.7209997"
       height="17.999001"
       x="21.264"
       y="26.427"
       id="rect16"
       style="fill:#141414" /><rect
       width="9.7200003"
       height="17.999001"
       x="1.016"
       y="26.427"
       id="rect18"
       style="fill:#333333" /><path
       d="m 1.016,33.016 v 5.812 c 2.292,0 4.151,-1.299 4.151,-2.906 0,-1.604 -1.859,-2.906 -4.151,-2.906 z"
       id="path40_1_"
       style="fill:#262626" /><path
       d="m 30.982,33.016 c -2.293,0 -4.151,1.301 -4.151,2.906 0,1.604 1.858,2.906 4.151,2.906 v -5.812 z"
       id="path47" /><path
       d="m 1.016,26.427 v 8.009 c 2.292,0 4.151,1.303 4.151,2.906 0,1.603 -1.859,2.905 -4.151,2.905 v 4.179 H 30.985 V 26.427 H 1.016 z m 29.966,13.82 c -2.293,0 -4.151,-1.299 -4.151,-2.907 0,-1.604 1.858,-2.904 4.151,-2.904 v 5.811 z"
       id="path22"
       style="fill:#1a1a1a" /><rect
       width="29.969"
       height="3.766"
       x="1.016"
       y="22.659"
       id="rect49" /><rect
       width="29.969"
       height="4.6560001"
       x="1.016"
       y="18.003"
       id="rect51"
       style="fill:#333333" /><rect
       width="24.299999"
       height="3.4419999"
       x="3.8510001"
       y="1.298"
       id="rect53"
       style="fill:#b2b2b2" /><path
       d="M 28.146,3.938 H 3.851 L 1.016,7.198 V 18.004 H 30.983 V 7.197 L 28.146,3.938 z M 15.999,14.895 c -3.523,0 -6.377,-2 -6.377,-4.465 0,-2.466 2.854,-4.465 6.377,-4.465 3.526,0 6.379,2 6.379,4.465 -0.002,2.465 -2.855,4.465 -6.379,4.465 z"
       id="path55"
       style="fill:#8c8c8c" /><g
       transform="translate(1.0847458,0)"
       id="text3376"
       xml:space="preserve"
       style="font-size:32px;font-style:normal;font-weight:normal;line-height:125%;letter-spacing:0px;word-spacing:0px;fill:#663300;fill-opacity:1;stroke:none;font-family:Droid Sans"><text
         x="3.8305089"
         y="31.322035"
         id="tspan3378"
         style="font-size:7.5px;fill:#663300;fill-opacity:1"><tspan
           id="tspan3008"
           style="font-size:6.40000629px">LM2576</tspan></text>
</g></g></svg>